<svg version="1.1" id="Layer_1" xmlns="http://www.w3.org/2000/svg" xmlns:xlink="http://www.w3.org/1999/xlink" x="0px" y="0px" viewBox="0 0 322.3 44" style="enable-background:new 0 0 322.3 44;" xml:space="preserve">
 <style type="text/css">
  .st0{fill:#287DFA;}
	.st1{fill:#FCB404;}
	.st2{fill-rule:evenodd;clip-rule:evenodd;fill:#287DFA;}
	.st3{fill:#7AAADB;}
 </style>
 <g id="Layer_2_1_">
  <g id="Layer_1-2">
   <path class="st0" d="M69.6,10.3c-2.6,0-5,1.1-6.7,3.1v-2h-6.7V44h7.4V32.6c1.7,1.4,3.7,2.2,5.9,2.2c6.6-0.1,11.9-5.5,11.8-12.2
			C81.5,15.9,76.2,10.5,69.6,10.3 M81.4,22.5c0.1-6.6-5.2-12.1-11.8-12.2 M68.8,28c-3,0.1-5.5-2.2-5.6-5.2s2.2-5.5,5.2-5.6
			c3-0.1,5.5,2.2,5.6,5.2c0,0.1,0,0.1,0,0.2C74.1,25.5,71.8,27.9,68.8,28C68.8,28,68.8,28,68.8,28">
   </path>
   <path class="st1" d="M93.6,30.3c0,2.5-2,4.5-4.4,4.5c-2.5,0-4.5-2-4.5-4.4c0-2.5,2-4.5,4.4-4.5c0,0,0,0,0,0
			C91.6,25.8,93.6,27.8,93.6,30.3C93.6,30.3,93.6,30.3,93.6,30.3">
   </path>
   <path class="st2" d="M47.3,8.3c-2.3,0-4.2-1.8-4.2-4.1S45,0,47.3,0c2.3,0,4.2,1.8,4.2,4.1c0,0,0,0,0,0C51.5,6.4,49.6,8.3,47.3,8.3
			C47.3,8.3,47.3,8.3,47.3,8.3">
   </path>
   <rect x="43.7" y="11.4" class="st0" width="7.4" height="22.2">
   </rect>
   <polygon class="st2" points="0,1.1 0,7.3 9.6,7.3 9.6,33.6 17,33.6 17,7.3 26.6,7.3 26.6,1.1 		">
   </polygon>
   <path class="st0" d="M109.2,27.9c-3,0-5.4-2.4-5.4-5.4s2.4-5.4,5.4-5.4c1.4,0,2.8,0.6,3.7,1.7l4.9-4.9c-4.8-4.7-12.5-4.7-17.2,0.1
			s-4.7,12.5,0.1,17.2c4.7,4.7,12.4,4.7,17.2,0l-4.9-4.9C111.9,27.3,110.6,27.9,109.2,27.9">
   </path>
   <path class="st2" d="M173.9,10.3c-2.8-0.2-5.5,1.2-6.9,3.6c-1.4-2.3-3.9-3.7-6.6-3.6c-2.7-0.1-5.2,1.3-6.5,3.6v-2.5h-6.7v22.2h7.4
			V19.8c-0.1-1.8,1.2-3.3,3-3.5c1.8-0.1,3.3,1.2,3.5,3c0,0.1,0,0.3,0,0.4v13.8h7V19.8c-0.1-1.8,1.2-3.3,3-3.5s3.3,1.2,3.5,3
			c0,0.1,0,0.3,0,0.4v13.8h7.4V18.4C182,13.4,178.9,10.3,173.9,10.3">
   </path>
   <path class="st0" d="M131.4,10.3c-6.7,0-12.2,5.4-12.2,12.2s5.4,12.2,12.2,12.2c6.7,0,12.2-5.4,12.2-12.2S138.1,10.3,131.4,10.3
			 M131.4,27.9c-3,0.1-5.5-2.2-5.6-5.2s2.2-5.5,5.2-5.6c3-0.1,5.5,2.2,5.6,5.2c0,0.1,0,0.1,0,0.2C136.6,25.4,134.3,27.8,131.4,27.9">
   </path>
   <path class="st0" d="M38.5,11.3c-2.7,0-5.2,1.3-6.7,3.6v-3.5h-6.7v22.2h7.4v-9.3c-0.1-3.3,2.4-6.1,5.7-6.2c0.2,0,0.3,0,0.5,0
			c0.4,0,0.8,0,1.2,0.1v-6.8C39.5,11.4,39,11.4,38.5,11.3">
   </path>
   <path class="st3" d="M211.9,16.6h-0.3V20h7.2V29c-1,0.6-2.2,1.1-3.3,1.4c-1.6,0.4-3.1,0.6-4.7,0.6c-1.8,0-3.6-0.4-5.2-1.1
			c-3-1.4-5.4-3.9-6.5-7c-1.2-3.3-1.2-6.8,0-10.1c0.6-1.5,1.4-3,2.5-4.2c1.1-1.2,2.4-2.2,3.9-2.9c1.6-0.7,3.4-1.1,5.2-1.1
			c1.7,0,3.4,0.3,5,0.9c1.4,0.6,2.7,1.5,3.7,2.6l0.2,0.2L220,8l2.2-2.2l0.2-0.2l-0.2-0.2c-1.4-1.4-3-2.4-4.8-3.2
			c-2.1-0.8-4.3-1.2-6.6-1.1c-2.2,0-4.5,0.4-6.5,1.2c-4,1.6-7.1,4.7-8.7,8.7c-0.9,2.1-1.3,4.4-1.3,6.6c0,2.3,0.4,4.5,1.2,6.6
			c1.6,4,4.7,7.1,8.6,8.7c2.1,0.8,4.3,1.3,6.6,1.2c2.1,0,4.2-0.2,6.2-0.7c1.9-0.5,3.8-1.3,5.5-2.4l0.1-0.1V16.6H211.9z">
   </path>
   <path class="st3" d="M282.5,12.3h-0.3v10.8c0,1.2-0.2,2.3-0.5,3.5c-0.3,0.9-0.7,1.7-1.4,2.4c-0.5,0.6-1.2,1-1.9,1.4
			c-0.7,0.3-1.4,0.4-2.2,0.4c-0.9,0-1.8-0.1-2.6-0.5c-0.6-0.3-1.2-0.8-1.6-1.4c-0.4-0.6-0.7-1.4-0.9-2.1c-0.2-0.9-0.3-1.9-0.3-2.9
			V12.3h-3.6v12.9c-0.1,2.3,0.6,4.5,2,6.3c1.5,1.7,3.8,2.6,6.1,2.4c1.5,0,3-0.4,4.3-1.2c1-0.6,2-1.4,2.7-2.3v2.9h3.3V12.3H282.5
			L282.5,12.3z">
   </path>
   <path class="st3" d="M312.4,18.5c-0.5-1.3-1.3-2.5-2.2-3.5c-1-1-2.1-1.8-3.4-2.4c-1.4-0.6-3-0.9-4.5-0.9c-1.5,0-3.1,0.4-4.4,1.1
			c-1.2,0.6-2.3,1.5-3.1,2.5v-3.1h-3.6V44h3.6V30.4c0.8,1,1.9,1.9,3.1,2.5c1.4,0.7,2.9,1,4.4,1.1c1.5,0,3.1-0.3,4.5-0.9
			c1.3-0.5,2.5-1.3,3.4-2.4c1-1,1.7-2.2,2.2-3.5C313.5,24.4,313.5,21.3,312.4,18.5 M308.9,26c-0.3,0.9-0.8,1.8-1.4,2.5
			c-0.6,0.7-1.4,1.3-2.3,1.7c-1,0.4-2.1,0.6-3.2,0.6c-1,0-2.1-0.2-3-0.6c-1.8-0.8-3.3-2.3-4-4.2c-0.8-2-0.8-4.3,0-6.3
			c0.4-0.9,0.9-1.8,1.6-2.5c0.7-0.7,1.4-1.3,2.3-1.7c1-0.4,2-0.6,3-0.6c1.1,0,2.2,0.2,3.2,0.6c0.9,0.4,1.7,1,2.3,1.7
			c0.6,0.7,1.1,1.6,1.4,2.5C309.5,21.8,309.5,24,308.9,26">
   </path>
   <path class="st3" d="M239.7,15v-3h-0.3c-0.4-0.1-0.8-0.1-1.1-0.1c-2.6,0-5.1,1.1-6.9,3c0-0.8,0-1.9,0-2.3v-0.3H228v21.1h3.6V21.3
			c0-3.4,2.8-6.2,6.2-6.2c0.5,0,1,0.1,1.5,0.2l0.4,0.1L239.7,15z">
   </path>
   <path class="st3" d="M251.9,11.4c-6.4,0-11.5,5.2-11.6,11.5c0,6.4,5.2,11.5,11.5,11.6c6.4,0,11.5-5.2,11.6-11.5c0,0,0,0,0,0
			C263.4,16.6,258.3,11.4,251.9,11.4 M251.9,31.3c-4.5-0.1-8.1-3.8-8-8.3c-0.2-4.4,3.3-8.2,7.7-8.4c4.4-0.2,8.2,3.3,8.4,7.7
			c0,0.2,0,0.4,0,0.7C260,27.4,256.4,31.2,251.9,31.3">
   </path>
   <polygon class="st3" points="314.6,13.1 313.2,13.1 313.2,12.3 316.8,12.3 316.8,13.1 315.4,13.1 315.4,16.9 314.6,16.9 		">
   </polygon>
   <polygon class="st3" points="317.3,12.3 318.6,12.3 319.8,15.6 319.8,15.6 321,12.3 322.3,12.3 322.3,16.9 321.5,16.9 321.5,13.2 
			321.5,13.2 320.1,16.9 319.5,16.9 318.1,13.2 318.1,13.2 318.1,16.9 317.3,16.9 		">
   </polygon>
  </g>
 </g>
</svg>