<svg width="136" height="24" fill="none" xmlns="http://www.w3.org/2000/svg"><g clip-path="url(#a)" fill-rule="evenodd" clip-rule="evenodd"><path d="M30.617 11.911C25.92 6.852 20.223 0 12.575 0 5.8 0 .305 5.332.305 11.91c0 6.576 5.494 11.908 12.27 11.908 7.616 0 13.417-6.801 18.042-11.907ZM12.689 5.16c3.84 0 6.953 3.022 6.953 6.75 0 3.727-3.113 6.749-6.953 6.749-3.841 0-6.955-3.022-6.955-6.75 0-3.727 3.114-6.749 6.955-6.749Z" fill="#FAB400"/><path d="M30.914 16.84a76.548 76.548 0 0 1-3.9 3.754c2.274 2.068 5.25 3.211 8.377 3.211 6.773 0 12.264-5.328 12.264-11.902C47.655 5.33 42.164 0 35.39 0c-3.137 0-6.124 1.154-8.403 3.234a197.114 197.114 0 0 1 3.85 3.798 6.908 6.908 0 0 1 4.61-1.742c3.763 0 6.813 2.961 6.813 6.613 0 3.652-3.05 6.614-6.813 6.614a6.909 6.909 0 0 1-4.534-1.677Zm22.013-6.117h7.912V8.937h-5.373V6.135h4.635v-1.77h-4.635V1.94h5.244V.186h-7.783v10.537ZM105.09.571a5.812 5.812 0 0 0-4.792-.08 5.522 5.522 0 0 0-2.815 2.77 5.301 5.301 0 0 0 .123 4.636 5.535 5.535 0 0 0 2.227 2.288 5.812 5.812 0 0 0 5.075.232 5.526 5.526 0 0 0 2.701-2.525 5.301 5.301 0 0 0 .328-4.1A5.51 5.51 0 0 0 105.09.57Zm-3.8 7.614c-.665-.306-1.225-.82-1.534-1.473a2.945 2.945 0 0 1-.282-1.26c0-1.252.795-2.336 1.981-2.802a3.133 3.133 0 0 1 2.482.078c1.097.512 1.801 1.534 1.801 2.725 0 .436-.096.866-.285 1.262-.316.668-.902 1.195-1.589 1.496-.825.36-1.756.35-2.574-.026ZM80.061.571a5.812 5.812 0 0 0-4.791-.08 5.523 5.523 0 0 0-2.816 2.77 5.295 5.295 0 0 0 .123 4.637 5.531 5.531 0 0 0 2.228 2.287 5.812 5.812 0 0 0 5.075.232 5.53 5.53 0 0 0 2.7-2.525 5.296 5.296 0 0 0 .329-4.1A5.509 5.509 0 0 0 80.06.57Zm-3.799 7.614c-.665-.306-1.226-.82-1.534-1.473a2.946 2.946 0 0 1-.282-1.26c0-1.252.794-2.336 1.981-2.802a3.133 3.133 0 0 1 2.482.078c1.097.512 1.8 1.534 1.8 2.725 0 .436-.096.866-.284 1.262-.316.668-.902 1.195-1.59 1.496-.825.36-1.755.35-2.573-.026Zm-4.84 1.24a35.309 35.309 0 0 1-1.783-1.716 3.157 3.157 0 0 1-2.073.766c-1.72 0-3.114-1.353-3.114-3.022 0-1.67 1.395-3.023 3.114-3.023.785 0 1.533.284 2.107.797a88.368 88.368 0 0 1 1.76-1.736 5.682 5.682 0 0 0-3.84-1.479c-3.096 0-5.605 2.436-5.605 5.44 0 3.005 2.509 5.44 5.604 5.44a5.68 5.68 0 0 0 3.83-1.467Zm22.056 1.298h2.001V.186h-2.506v6.606L86.852.186H84.59v10.537h2.507V3.768l6.381 6.955Zm16.169 0h2.507V3.846l3.385 4.081 3.417-4.078v6.874h2.49V.186h-2.274l-3.634 4.406L111.92.186h-2.273v10.537Zm16.859 0h2.539V5.914l4.303-5.728h-3.004l-2.562 3.576-2.499-3.576h-3.034l4.257 5.744v4.793ZM87.304 23.811h2.538v-5.27l4.433 5.27h3.296l-4.805-5.673 3.841-4.863H93.79l-3.948 5.02v-5.02h-2.538V23.81Zm47.92-7.923v-1.951a9.685 9.685 0 0 0-1.788-.616 8.16 8.16 0 0 0-1.866-.22c-1.049 0-2.104.208-2.952.838-.732.544-1.114 1.252-1.114 2.15 0 .802.259 1.505.854 2.069.774.732 2.216 1.285 3.221 1.626.347.118.987.34 1.26.584.209.187.301.43.301.705a.897.897 0 0 1-.478.82c-.369.213-.877.258-1.298.258-.587 0-1.16-.114-1.711-.307-.669-.234-1.34-.594-1.955-.957v2.117c.555.32 1.143.572 1.765.74.64.175 1.298.256 1.963.256 1.087 0 2.267-.177 3.155-.83.768-.565 1.114-1.325 1.114-2.254 0-.531-.098-1.058-.354-1.53a2.767 2.767 0 0 0-1.048-1.065c-.661-.39-1.531-.707-2.256-.968-.162-.058-.329-.113-.485-.176-.388-.14-.836-.329-1.158-.587-.23-.184-.416-.424-.416-.725 0-.336.179-.579.478-.74.363-.196.857-.237 1.265-.237.557 0 1.12.11 1.651.267.634.188 1.256.448 1.852.733Zm-9.226 6.714v-4.33h-4.114v1.787h1.527v1.55l-.074.028a5.04 5.04 0 0 1-.83.254 4.08 4.08 0 0 1-.84.087c-.959 0-1.851-.258-2.535-.931-.689-.679-.946-1.558-.946-2.496 0-.956.264-1.85.992-2.525.742-.688 1.719-.918 2.722-.918a7.37 7.37 0 0 1 1.903.275c.673.181 1.326.44 1.952.74V14.02a10.216 10.216 0 0 0-1.98-.699 8.863 8.863 0 0 0-2.027-.236c-1.66 0-3.248.395-4.495 1.502-1.187 1.055-1.688 2.413-1.688 3.964 0 .755.136 1.49.433 2.189a5.12 5.12 0 0 0 1.251 1.776 5.392 5.392 0 0 0 1.855 1.103c.759.27 1.559.381 2.366.381.831 0 1.663-.102 2.456-.352a7.28 7.28 0 0 0 2.072-1.046ZM112 23.812h2.001V13.274h-2.507v6.605l-6.12-6.605h-2.261V23.81h2.506v-6.955L112 23.81Zm-13.689 0h2.62V13.274h-2.62V23.81Zm-45.384 0h4.839c1.05 0 2.342-.13 3.219-.747.766-.539 1.045-1.332 1.045-2.225 0-.613-.148-1.199-.546-1.686-.418-.511-1.044-.82-1.675-1.012l-.298-.091.284-.125c.417-.183.79-.442 1.05-.814.25-.357.356-.759.356-1.189 0-.843-.325-1.51-1.061-1.97-.898-.562-2.197-.678-3.238-.678h-3.975v10.537Zm4.11-6.28h-1.555V14.95h1.555c.41 0 .87.069 1.192.332.312.255.416.631.416 1.016 0 .365-.11.702-.414.93-.327.245-.793.303-1.194.303Zm-1.555 4.541v-2.849h1.712c.514 0 1.163.058 1.595.352.39.264.539.668.539 1.12 0 .428-.135.824-.514 1.066-.422.27-1.114.311-1.603.311h-1.729Zm27.17-8.431a5.81 5.81 0 0 0-4.79-.08 5.523 5.523 0 0 0-2.817 2.77 5.298 5.298 0 0 0 .124 4.637 5.529 5.529 0 0 0 2.227 2.287 5.812 5.812 0 0 0 5.075.232 5.53 5.53 0 0 0 2.7-2.525 5.296 5.296 0 0 0 .329-4.1 5.509 5.509 0 0 0-2.848-3.221Zm-3.799 7.614c-.665-.306-1.226-.82-1.534-1.473a2.947 2.947 0 0 1-.282-1.26c0-1.252.794-2.335 1.98-2.802a3.133 3.133 0 0 1 2.483.078c1.097.512 1.8 1.534 1.8 2.725 0 .436-.095.866-.283 1.262-.317.668-.902 1.195-1.59 1.496a3.14 3.14 0 0 1-2.574-.026Zm-8.16-7.614a5.81 5.81 0 0 0-4.791-.08 5.522 5.522 0 0 0-2.817 2.77 5.298 5.298 0 0 0 .124 4.637 5.53 5.53 0 0 0 2.227 2.287 5.812 5.812 0 0 0 5.076.232 5.532 5.532 0 0 0 2.7-2.525 5.296 5.296 0 0 0 .329-4.1 5.511 5.511 0 0 0-2.848-3.221Zm-3.8 7.614c-.665-.306-1.225-.82-1.534-1.473a2.948 2.948 0 0 1-.282-1.26c0-1.252.794-2.335 1.981-2.802a3.133 3.133 0 0 1 2.482.078c1.097.512 1.801 1.534 1.801 2.725 0 .436-.096.866-.284 1.262-.316.668-.902 1.195-1.59 1.496a3.14 3.14 0 0 1-2.573-.026Z" fill="#fff"/></g><defs><clipPath id="a"><path fill="#fff" d="M0 0h136v24H0z"/></clipPath></defs></svg>