<svg height="26px" version="1.1" viewBox="0 0 26 26" width="26px" xmlns="http://www.w3.org/2000/svg" xmlns:xlink="http://www.w3.org/1999/xlink"><title>7A2AEB20-9444-4320-9263-BCD049522F4A</title> <desc>Created with sketchtool.</desc> <g fill="none" fill-rule="evenodd" id="Navigation" stroke="none" stroke-width="1"> <g fill="#2D3B4E" id="00.01.03.M.Airport-transfer-book.Side_menu" transform="translate(-32.000000, -17.000000)"> <g id="Side_menu.Grey.Paddings.Mini_logo.Lines" transform="translate(-0.000000, 0.000000)"> <g id="Side_menu-/-Header"> <g id="Logo.Welcome"> <g transform="translate(32.000000, 17.000000)"> <g id="Logo.Dark"> <path d="M20.6968575,12.7503326 L16.1158901,17.3673707 C15.9680576,17.5163672 15.7742191,17.5908655 15.5803806,17.5908655 C15.3868488,17.5908655 15.1927037,17.5163672 15.0451779,17.3673707 C14.7492062,17.0693776 14.7492062,16.5862208 15.0451779,16.2882277 L19.6261453,11.6708805 C19.9215036,11.3731966 20.4014992,11.3731966 20.6968575,11.6708805 C20.9925225,11.9691827 20.9925225,12.4523396 20.6968575,12.7503326 M12.6933529,14.9961 C11.0650484,14.9961 9.74038323,13.6610044 9.74038323,12.0198786 C9.74038323,10.3787528 11.0650484,9.04365728 12.6933529,9.04365728 C14.3219641,9.04365728 15.6466292,10.3787528 15.6466292,12.0198786 C15.6466292,13.6610044 14.3219641,14.9961 12.6933529,14.9961 M10.3421413,17.3673707 C10.1943088,17.5163672 10.0004703,17.5908655 9.80663182,17.5908655 C9.61279334,17.5908655 9.41895487,17.5163672 9.27112237,17.3673707 L4.69015493,12.7503326 C4.39418321,12.4523396 4.39418321,11.9691827 4.69015493,11.6708805 C4.98581994,11.3731966 5.46550882,11.3731966 5.76117383,11.6708805 L10.3421413,16.2882277 C10.6378063,16.5862208 10.6378063,17.0693776 10.3421413,17.3673707 M12.6933529,0 C5.68296369,0 0,5.72802055 0,12.7936096 C0,19.8588896 5.68296369,25.5869102 12.6933529,25.5869102 C19.7040487,25.5869102 25.3870124,19.8588896 25.3870124,12.7936096 C25.3870124,5.72802055 19.7040487,0 12.6933529,0 M12.6933529,10.5697899 C11.8999033,10.5697899 11.2545929,11.2204906 11.2545929,12.0198786 C11.2545929,12.8195758 11.8999033,13.4699674 12.6933529,13.4699674 C13.4868024,13.4699674 14.1324195,12.8195758 14.1324195,12.0198786 C14.1324195,11.2204906 13.4868024,10.5697899 12.6933529,10.5697899" id="Fill-1"></path> </g> </g> </g> </g> </g> </g> </g> </svg>